<?xml version="1.0" encoding="UTF-8"?>
<svg id="Capa_1" data-name="Capa 1" xmlns="http://www.w3.org/2000/svg" width="991.51" height="729.91" viewBox="0 0 991.51 729.91">
  <defs>
    <style>
      .cls-1 {
        fill: #1d181c;
      }

      .cls-2 {
        fill: #231f20;
      }

      .cls-3 {
        fill: #e73137;
      }
    </style>
  </defs>
  <g>
    <path class="cls-2" d="M0,634.75h51.35l23.12-55.42,14.4,33.44s8.67,21.98,26.55,21.98h42.99c-8.62-4.1-15.5-17.52-17.51-22.27-1.95-4.8-66.44-142.52-66.44-142.52L0,634.75Z"/>
    <path class="cls-2" d="M80.25,446.49l76.41,164.8s9.26,23.47,37.61,23.47h36.13s-17.92-19.3-35.84-57.5c-17.89-38.21-37.32-82.4-48.04-105.69-10.76-23.27-32.86-25.07-45.1-25.07h-21.18Z"/>
    <path class="cls-2" d="M236.07,446.49v188.27h135.32v-38.6h-82v-126.2c0-11.92-6.74-23.47-17.88-23.47h-35.44Z"/>
    <path class="cls-2" d="M493.67,634.75h17.5l49.06-91.8.03,91.8h49.36v-164.79s1.67-20.77-19.12-23.47h-40.36l-53.32,101.12s-43.37-80.15-48.55-89.34c-5.77-10.23-13.85-11.77-25.72-11.77h-38.81v188.27h49.06v-93.29l40.48,74.97c5.25,11.98,10.71,18.31,20.38,18.31Z"/>
    <path class="cls-2" d="M903.51,534.04l65.73-87.56h-54.55l-38.59,50.94-25.92-30.25s-15.1-20.69-40.59-20.69h-175.52v188.27h195.05l44.59-61.31,35.78,45s10.38,16.31,33.86,16.31h48.14l-87.99-100.71ZM801.65,596.15h-117.01v-33.45h81.98v-40.98h-81.98v-35.03h108.27c11.94,0,19.89,10.36,19.89,10.36l32.64,40.97-43.79,58.12Z"/>
  </g>
  <g>
    <path class="cls-3" d="M547.69,378.69c.18-1.3.28-2.64.31-3.97,0-.09,0-.17,0-.26,0-.48,0-.97,0-1.46.04-6.64-1.17-13.95-4.8-21.42l-117.81-217.66-.24.46-.25-.46-42.99,81.42s-6.04,9.23-7.68,22.39c-.02.12-.04.25-.06.37,0,.03,0,.08-.01.11-.18,1.3-.28,2.63-.31,3.97,0,.08,0,.17,0,.25,0,.49-.01.97,0,1.46-.04,6.64,1.17,13.95,4.8,21.43l117.81,217.66.24.47.25-.47,42.99-81.42s6.04-9.24,7.68-22.39c.02-.12.04-.25.06-.37,0-.03,0-.07.01-.1Z"/>
    <path class="cls-3" d="M448.42,129.31c-6.41-13.37-5.44-27.44-1.98-35.89,3.51-8.43,49.71-93.42,49.71-93.42,0,0,46.2,84.99,49.7,93.42,3.5,8.45,4.44,22.18-1.97,35.89-5.87,12.66-47.73,87.91-47.73,87.91,0,0-40.88-73.5-47.73-87.91Z"/>
    <path class="cls-3" d="M519.94,261c-6.41-13.37-5.44-27.44-1.98-35.89,3.51-8.43,49.71-93.42,49.71-93.42,0,0,46.2,84.99,49.7,93.42,3.5,8.45,4.44,22.18-1.97,35.89-5.87,12.66-47.73,87.9-47.73,87.9,0,0-40.88-73.49-47.73-87.9Z"/>
  </g>
  <g>
    <path class="cls-1" d="M66.3,729.05c-1.28-.09-2.49-.13-3.63-.13h-6.8c-1.15,0-2.28.04-3.4.13-.85-2.19-1.73-4.44-2.64-6.72-.9-2.28-1.86-4.56-2.88-6.85-1.71-.04-3.41-.08-5.11-.1-1.71-.02-3.41-.03-5.12-.03-1.39,0-2.77.01-4.16.03-1.39.02-2.77.05-4.16.1-1.07,2.29-2.05,4.57-2.96,6.85-.9,2.28-1.73,4.52-2.47,6.72-.64-.09-1.27-.13-1.88-.13h-3.8c-.64,0-1.33.04-2.08.13.64-1.17,1.49-2.78,2.56-4.84,1.07-2.06,2.24-4.39,3.52-6.98,1.28-2.6,2.65-5.38,4.11-8.37,1.47-2.98,2.93-5.99,4.4-9.03,1.46-3.05,2.9-6.04,4.32-9,1.41-2.96,2.7-5.71,3.88-8.26.53.09,1.04.16,1.52.23s.99.1,1.52.1,1.04-.03,1.52-.1c.48-.07.99-.14,1.52-.23,1.71,3.81,3.53,7.88,5.48,12.23,1.95,4.35,3.9,8.61,5.87,12.8,1.98,4.18,3.89,8.16,5.76,11.92,1.87,3.76,3.57,6.94,5.12,9.54ZM38.01,695.53c-1.39,2.68-2.69,5.33-3.92,7.94-1.23,2.62-2.43,5.28-3.6,8.01h14.62c-1.17-2.73-2.33-5.39-3.47-8.01-1.15-2.62-2.36-5.26-3.63-7.94Z"/>
    <path class="cls-1" d="M75.68,691.59c-.11-2.89-.28-5.79-.49-8.7.91.1,1.89.16,2.96.23,1.07.07,2.27.1,3.6.1s2.53-.03,3.6-.1c1.07-.07,2.05-.14,2.96-.23-.22,2.91-.39,5.81-.49,8.7-.11,2.89-.16,6.19-.16,9.91v9.14c0,2.55.01,5.01.03,7.39.02,2.37.05,4.44.1,6.18,3.04,0,6.07-.07,9.11-.2,3.03-.13,6.1-.35,9.19-.66-.11.49-.18.94-.24,1.34-.05.41-.08.96-.08,1.68s.03,1.27.08,1.68.13.74.24,1.01c-1.44-.05-3.21-.08-5.31-.1-2.1-.03-5-.03-8.67-.03h-12.64c-1.2,0-2.1,0-2.71.03-.61.02-1.13.05-1.55.1.22-2.78.38-5.61.49-8.5.11-2.89.16-6.19.16-9.91v-9.14c0-3.72-.06-7.02-.16-9.91Z"/>
    <path class="cls-1" d="M121.51,714.01c-.43,5.01-.85,10.03-1.28,15.04-.64-.09-1.28-.13-1.92-.13h-3.72c-.61,0-1.24.04-1.88.13,1.71-7.71,3.22-15.36,4.55-22.97,1.33-7.62,2.55-15.34,3.68-23.19.58.1,1.13.16,1.64.23.51.07,1.05.1,1.64.1.48,0,.99-.03,1.52-.1.53-.07,1.09-.14,1.68-.23,1.43,2.69,2.94,5.42,4.51,8.2,1.57,2.78,3.14,5.55,4.71,8.3,1.57,2.76,3.14,5.46,4.72,8.1,1.57,2.64,3.08,5.15,4.52,7.52,3.2-5.01,6.38-10.27,9.55-15.76,3.16-5.48,6.19-10.94,9.07-16.36,1.33.23,2.48.33,3.44.33.91,0,2.02-.1,3.36-.33.53,3.86,1.11,8,1.72,12.43.61,4.44,1.21,8.77,1.8,13,.59,4.23,1.17,8.19,1.76,11.86.59,3.67,1.12,6.63,1.6,8.86-1.07-.09-2.14-.13-3.24-.13h-6.51c-1.12,0-2.24.04-3.36.13-.27-4.61-.71-9.61-1.32-14.98-.61-5.38-1.24-10.7-1.88-15.99h-.16c-3.04,5.29-6.02,10.49-8.95,15.59-2.93,5.11-5.84,10.23-8.71,15.38-.27-.05-.51-.08-.76-.1-.24-.03-.49-.03-.76-.03s-.52,0-.76.03c-.24.02-.49.05-.76.1-2.88-5.01-5.74-10.03-8.59-15.04-2.85-5.02-5.79-10.11-8.83-15.26h-.16c-.85,5.14-1.49,10.23-1.92,15.26Z"/>
    <path class="cls-1" d="M189.55,691.59c-.11-2.89-.27-5.79-.49-8.7.91.1,1.89.16,2.96.23,1.06.07,2.27.1,3.6.1s2.53-.03,3.6-.1c1.07-.07,2.05-.14,2.96-.23-.22,2.91-.39,5.81-.49,8.7-.11,2.89-.16,6.19-.16,9.91v9.14c0,3.72.05,7.02.16,9.91.11,2.89.27,5.72.49,8.5-.9-.09-1.89-.13-2.96-.13h-7.19c-1.07,0-2.05.04-2.96.13.22-2.78.38-5.61.49-8.5.11-2.89.17-6.19.17-9.91v-9.14c0-3.72-.06-7.02-.17-9.91Z"/>
    <path class="cls-1" d="M217.11,691.59c-.11-2.89-.28-5.79-.49-8.7.91.1,1.89.16,2.95.23,1.07.07,2.27.1,3.6.1,1.76,0,3.73-.05,5.92-.16,2.18-.1,5.04-.16,8.55-.16,4.59,0,8.75.35,12.51,1.04,3.75.69,6.99,1.87,9.71,3.53,2.72,1.66,4.82,3.88,6.32,6.68,1.49,2.8,2.23,6.33,2.23,10.58,0,3.72-.73,7.08-2.2,10.08-1.46,3-3.46,5.57-5.99,7.7-2.53,2.13-5.47,3.75-8.8,4.87-3.33,1.12-6.89,1.68-10.67,1.68-4,0-7.41-.02-10.23-.07-2.82-.04-5.27-.06-7.35-.06h-3.6c-1.07,0-2.05.04-2.95.13.21-2.78.38-5.61.49-8.5.11-2.89.16-6.19.16-9.91v-9.14c0-3.72-.05-7.02-.16-9.91ZM229.08,715.56v4.03c0,1.3.01,2.49.03,3.57.02,1.08.03,1.77.03,2.08.8.05,1.76.09,2.88.13,1.12.05,2.5.07,4.16.07,6.02,0,10.79-1.72,14.31-5.18,3.52-3.45,5.27-8.68,5.27-15.68,0-2.78-.44-5.27-1.32-7.47-.88-2.19-2.12-4.07-3.72-5.62-1.6-1.55-3.52-2.73-5.75-3.56-2.24-.83-4.75-1.25-7.52-1.25-1.91,0-3.48.03-4.68.1-1.2.07-2.41.14-3.63.24,0,.31-.01,1.01-.04,2.08s-.03,2.29-.03,3.63v4.04s0,3.36,0,3.36v15.42Z"/>
    <path class="cls-1" d="M278.59,696.75c1.47-2.91,3.53-5.46,6.19-7.65,2.66-2.19,5.88-3.92,9.65-5.17,3.78-1.25,7.99-1.88,12.62-1.88,4.25,0,8.22.49,11.89,1.48,3.67.99,6.86,2.46,9.58,4.44,2.71,1.96,4.85,4.46,6.42,7.48,1.57,3.02,2.36,6.54,2.36,10.57,0,3.35-.76,6.49-2.28,9.4-1.52,2.91-3.62,5.45-6.31,7.62-2.69,2.17-5.9,3.86-9.62,5.07-3.72,1.21-7.82,1.81-12.29,1.81-4.2,0-8.15-.44-11.86-1.31-3.69-.87-6.92-2.28-9.66-4.23-2.74-1.94-4.91-4.43-6.51-7.45-1.59-3.02-2.39-6.64-2.39-10.85,0-3.31.73-6.42,2.2-9.33ZM322.92,696.75c-.85-2.3-2.03-4.27-3.55-5.87-1.52-1.61-3.35-2.85-5.5-3.72-2.15-.88-4.5-1.32-7.06-1.32-2.71,0-5.14.55-7.29,1.65-2.15,1.1-3.98,2.58-5.46,4.46-1.49,1.88-2.62,4.08-3.39,6.61s-1.16,5.23-1.16,8.08c0,3.58.45,6.6,1.36,9.06.9,2.47,2.13,4.44,3.67,5.94,1.54,1.5,3.32,2.58,5.34,3.25,2.02.67,4.15,1.01,6.38,1.01,2.39,0,4.68-.42,6.86-1.27,2.17-.84,4.07-2.15,5.7-3.89,1.62-1.74,2.93-3.96,3.91-6.64.98-2.68,1.47-5.86,1.47-9.53,0-2.91-.43-5.51-1.28-7.81Z"/>
    <path class="cls-1" d="M349.07,688.47c-.11-2.11-.18-3.97-.24-5.58,1.49.23,2.69.33,3.6.33s2.11-.1,3.6-.33c5.81,5.42,11.55,10.76,17.23,15.99,5.68,5.24,11.5,10.57,17.47,15.99v-12.36c0-2.19-.02-4.35-.04-6.48-.03-2.13-.06-4.09-.08-5.88-.03-1.79-.08-3.35-.17-4.64-.08-1.3-.17-2.17-.29-2.62,1.49.23,2.69.33,3.6.33s2.11-.1,3.6-.33c-.26,4.08-.47,7.76-.62,11.05-.16,3.3-.29,6.4-.39,9.31s-.17,5.79-.19,8.64c-.03,2.84-.04,5.88-.04,9.1v8.07c-1.07-.09-2.16-.13-3.28-.13s-2.21.04-3.12.13c-10.99-10.74-22.65-21.56-34.97-32.45-.04,1.3-.08,2.6-.1,3.9-.02,1.3-.03,2.62-.03,3.97v7.79c0,2.68.01,4.97.04,6.85.03,1.87.06,3.47.11,4.77.05,1.29.1,2.36.15,3.19.05.83.11,1.49.16,1.98-.64-.09-1.28-.13-1.92-.13h-1.84c-1.22,0-2.45.04-3.68.13.11-.36.24-1.64.4-3.83.16-2.19.33-4.87.52-8.03.19-3.16.34-6.58.48-10.28.13-3.69.2-7.24.2-10.65,0-3.09-.05-5.69-.16-7.79Z"/>
    <path class="cls-1" d="M411.08,691.59c-.1-2.89-.25-5.79-.44-8.7,2.39.05,4.76.12,7.1.2,2.34.09,4.71.13,7.11.13,3.94,0,7.45-.03,10.51-.1,3.07-.07,5.13-.14,6.2-.23-.21.72-.32,1.66-.32,2.82,0,.72.02,1.27.07,1.68.05.4.14.85.24,1.34-1.54-.09-3.24-.18-5.08-.27-1.84-.09-3.62-.18-5.35-.27-1.73-.09-3.29-.16-4.68-.2-1.38-.05-2.37-.08-2.95-.08-.21,2.47-.33,4.91-.36,7.32-.02,2.42-.04,4.86-.04,7.32,3.46-.04,6.6-.1,9.39-.2,2.8-.08,5.72-.19,8.75-.33-.16.76-.27,1.35-.32,1.75-.05.4-.08.82-.08,1.27,0,.35.04.72.12,1.1.08.38.17.93.28,1.64-6.07-.4-12.12-.59-18.14-.59,0,1.43-.01,2.86-.03,4.29-.02,1.43-.03,2.86-.03,4.29,0,2.91.09,5.71.26,8.39,3.04,0,6.07-.07,9.11-.2,3.04-.13,6.1-.35,9.19-.66-.11.49-.18.94-.24,1.34-.05.41-.08.96-.08,1.68s.03,1.27.08,1.68c.05.4.13.74.24,1.01-1.44-.05-3.21-.08-5.31-.1-2.1-.03-4.99-.03-8.67-.03h-12.69c-1.2,0-2.11,0-2.72.03-.62.02-1.13.05-1.56.1.19-2.78.34-5.61.44-8.5.1-2.89.15-6.19.15-9.91v-9.14c0-3.72-.05-7.02-.15-9.91Z"/>
    <path class="cls-1" d="M467.13,686.24c-2.45,0-4.45.61-6,1.81-1.54,1.21-2.32,2.62-2.32,4.22s.6,3.01,1.8,4.06c1.2,1.05,2.71,2,4.52,2.85,1.81.85,3.76,1.67,5.84,2.45,2.07.78,4.03,1.74,5.84,2.88,1.82,1.14,3.32,2.53,4.52,4.16,1.2,1.64,1.8,3.73,1.8,6.27,0,2.23-.51,4.28-1.52,6.14-1.02,1.85-2.45,3.44-4.32,4.76-1.87,1.31-4.09,2.32-6.68,3.01-2.59.69-5.48,1.04-8.68,1.04-2.89,0-5.46-.26-7.73-.78-2.27-.52-3.99-1.16-5.16-1.93.53-1.57.98-3.01,1.36-4.31.37-1.29.69-2.71.96-4.23h1.52c.21.98.61,1.91,1.2,2.79.59.87,1.33,1.65,2.24,2.32.91.67,2,1.21,3.28,1.58,1.28.39,2.72.57,4.32.57,3.2,0,5.57-.67,7.09-2.01,1.52-1.34,2.28-2.95,2.28-4.83,0-1.7-.59-3.09-1.76-4.16-1.18-1.08-2.64-2.02-4.4-2.85-1.76-.82-3.69-1.63-5.77-2.41s-4-1.73-5.77-2.85c-1.76-1.12-3.23-2.49-4.4-4.13-1.18-1.63-1.76-3.72-1.76-6.27,0-2.32.5-4.38,1.49-6.17.98-1.79,2.31-3.28,3.97-4.49,1.66-1.21,3.56-2.13,5.72-2.75,2.16-.63,4.44-.94,6.84-.94,2.88,0,5.4.3,7.55.89,2.16.59,4.01,1.4,5.56,2.43-.48,1.04-.89,2.04-1.24,3-.35.96-.78,2.19-1.32,3.66h-1.2c-1.71-3.85-4.93-5.78-9.67-5.78Z"/>
    <path class="cls-1" d="M522.42,714.01c-.43,5.01-.85,10.03-1.28,15.04-.64-.09-1.28-.13-1.92-.13h-3.72c-.61,0-1.24.04-1.88.13,1.7-7.71,3.22-15.36,4.55-22.97,1.33-7.62,2.56-15.34,3.68-23.19.58.1,1.13.16,1.63.23.51.07,1.05.1,1.64.1.48,0,.99-.03,1.52-.1.53-.07,1.09-.14,1.68-.23,1.43,2.69,2.94,5.42,4.51,8.2,1.57,2.78,3.14,5.55,4.71,8.3,1.57,2.76,3.14,5.46,4.72,8.1,1.57,2.64,3.08,5.15,4.51,7.52,3.2-5.01,6.38-10.27,9.55-15.76,3.17-5.48,6.19-10.94,9.07-16.36,1.33.23,2.48.33,3.44.33.91,0,2.02-.1,3.36-.33.53,3.86,1.11,8,1.72,12.43.61,4.44,1.21,8.77,1.8,13,.59,4.23,1.17,8.19,1.76,11.86.59,3.67,1.12,6.63,1.6,8.86-1.07-.09-2.14-.13-3.24-.13h-6.51c-1.12,0-2.24.04-3.36.13-.27-4.61-.71-9.61-1.32-14.98-.62-5.38-1.24-10.7-1.88-15.99h-.16c-3.04,5.29-6.02,10.49-8.95,15.59-2.93,5.11-5.84,10.23-8.71,15.38-.27-.05-.51-.08-.76-.1-.24-.03-.49-.03-.76-.03s-.52,0-.76.03c-.24.02-.49.05-.76.1-2.88-5.01-5.74-10.03-8.6-15.04-2.85-5.02-5.79-10.11-8.83-15.26h-.16c-.85,5.14-1.49,10.23-1.92,15.26Z"/>
    <path class="cls-1" d="M589.36,691.59c-.1-2.89-.25-5.79-.44-8.7,2.39.05,4.76.12,7.11.2,2.34.09,4.71.13,7.11.13,3.94,0,7.44-.03,10.51-.1,3.07-.07,5.13-.14,6.2-.23-.21.72-.32,1.66-.32,2.82,0,.72.02,1.27.08,1.68.05.4.13.85.24,1.34-1.55-.09-3.24-.18-5.08-.27-1.84-.09-3.62-.18-5.36-.27-1.73-.09-3.29-.16-4.67-.2-1.39-.05-2.37-.08-2.96-.08-.21,2.47-.33,4.91-.35,7.32-.03,2.42-.04,4.86-.04,7.32,3.46-.04,6.59-.1,9.39-.2,2.79-.08,5.71-.19,8.75-.33-.16.76-.27,1.35-.32,1.75-.05.4-.08.82-.08,1.27,0,.35.04.72.12,1.1.08.38.17.93.28,1.64-6.07-.4-12.12-.59-18.14-.59,0,1.43-.01,2.86-.03,4.29-.02,1.43-.03,2.86-.03,4.29,0,2.91.09,5.71.26,8.39,3.04,0,6.07-.07,9.11-.2,3.04-.13,6.1-.35,9.19-.66-.11.49-.18.94-.24,1.34-.05.41-.08.96-.08,1.68s.03,1.27.08,1.68.13.74.24,1.01c-1.44-.05-3.21-.08-5.31-.1-2.1-.03-5-.03-8.67-.03h-12.68c-1.2,0-2.11,0-2.73.03-.61.02-1.13.05-1.56.1.2-2.78.34-5.61.44-8.5s.15-6.19.15-9.91v-9.14c0-3.72-.05-7.02-.15-9.91Z"/>
    <path class="cls-1" d="M639.01,700.94c-1.7-2.58-3.36-5.06-4.95-7.46-1.6-2.39-3.04-4.56-4.32-6.48-1.28-1.93-2.18-3.29-2.72-4.1,1.28.1,2.5.16,3.68.23,1.17.07,2.37.1,3.59.1s2.41-.03,3.56-.1c1.15-.07,2.33-.14,3.56-.23,1.6,2.74,3.23,5.47,4.88,8.2,1.65,2.73,3.33,5.47,5.04,8.2,2.02-2.73,4.01-5.46,5.96-8.2,1.94-2.73,3.85-5.46,5.71-8.2.75.1,1.44.16,2.08.23.64.07,1.3.1,1.99.1.64,0,1.29-.03,1.96-.1.67-.07,1.37-.14,2.12-.23-.91.99-2.04,2.29-3.4,3.9-1.36,1.61-2.81,3.37-4.36,5.25-1.54,1.88-3.11,3.8-4.67,5.78-1.57,1.97-3.05,3.78-4.44,5.44,1.34,2.15,2.8,4.48,4.4,6.99,1.6,2.51,3.18,4.95,4.76,7.32,1.57,2.37,3.04,4.59,4.39,6.65,1.36,2.06,2.44,3.67,3.24,4.84-1.23-.09-2.41-.13-3.56-.13h-6.95c-1.15,0-2.31.04-3.48.13-1.71-2.73-3.41-5.53-5.12-8.4-1.7-2.86-3.49-5.73-5.36-8.6-2.18,2.87-4.29,5.72-6.31,8.56-2.03,2.85-3.97,5.66-5.83,8.43-1.23-.09-2.53-.13-3.92-.13h-1.96c-.66,0-1.37.04-2.12.13,1.01-1.07,2.21-2.47,3.6-4.2,1.39-1.73,2.85-3.55,4.4-5.48,1.54-1.93,3.1-3.88,4.67-5.88,1.57-1.99,3.05-3.86,4.44-5.61-1.33-2.06-2.85-4.38-4.56-6.96Z"/>
    <path class="cls-1" d="M681.8,691.59c-.11-2.89-.28-5.79-.49-8.7.9.1,1.89.16,2.96.23,1.07.07,2.27.1,3.6.1s2.53-.03,3.6-.1c1.07-.07,2.05-.14,2.96-.23-.22,2.91-.38,5.81-.49,8.7-.11,2.89-.16,6.19-.16,9.91v9.14c0,3.72.05,7.02.16,9.91.11,2.89.27,5.72.49,8.5-.91-.09-1.89-.13-2.96-.13h-7.19c-1.07,0-2.05.04-2.96.13.21-2.78.38-5.61.49-8.5.11-2.89.16-6.19.16-9.91v-9.14c0-3.72-.05-7.02-.16-9.91Z"/>
    <path class="cls-1" d="M751.63,724.26c-.32.97-.54,1.92-.64,2.87-4.31,1.85-9.75,2.78-16.3,2.78-4.64,0-8.78-.55-12.43-1.64-3.65-1.1-6.74-2.64-9.27-4.63-2.53-2-4.46-4.35-5.79-7.09-1.34-2.73-2-5.68-2-8.86,0-4.65.87-8.61,2.6-11.85,1.73-3.24,4.05-5.89,6.96-7.92,2.9-2.04,6.27-3.53,10.11-4.47,3.84-.94,7.86-1.41,12.07-1.41,1.38,0,2.85.09,4.39.27,1.55.18,3.04.42,4.48.72,1.44.29,2.81.63,4.12,1.05,1.3.4,2.41.83,3.31,1.28-.53,1.12-.95,2.26-1.24,3.4-.29,1.14-.49,2.3-.6,3.46h-1.12c-2.03-2.15-4.11-3.69-6.24-4.61-2.13-.92-4.63-1.38-7.51-1.38-2.13,0-4.28.4-6.44,1.21-2.16.8-4.12,2.03-5.87,3.69-1.76,1.66-3.19,3.76-4.28,6.34-1.09,2.57-1.64,5.63-1.64,9.21s.56,6.38,1.68,8.81c1.11,2.44,2.57,4.42,4.35,5.96,1.79,1.55,3.81,2.67,6.08,3.39,2.26.72,4.54,1.07,6.83,1.07,1.28,0,2.58-.12,3.92-.37,1.33-.25,2.64-.58,3.92-1.01,1.28-.42,2.49-.95,3.63-1.58,1.15-.62,2.15-1.32,3-2.09l1.04.54c-.43.95-.8,1.89-1.12,2.85Z"/>
    <path class="cls-1" d="M805.55,729.05c-1.28-.09-2.49-.13-3.64-.13h-6.79c-1.15,0-2.28.04-3.4.13-.85-2.19-1.73-4.44-2.64-6.72-.91-2.28-1.86-4.56-2.88-6.85-1.7-.04-3.41-.08-5.11-.1-1.71-.02-3.41-.03-5.12-.03-1.38,0-2.77.01-4.16.03-1.38.02-2.77.05-4.15.1-1.07,2.29-2.05,4.57-2.96,6.85-.91,2.28-1.73,4.52-2.48,6.72-.64-.09-1.27-.13-1.88-.13h-3.8c-.64,0-1.33.04-2.08.13.64-1.17,1.49-2.78,2.55-4.84,1.07-2.06,2.24-4.39,3.52-6.98,1.28-2.6,2.65-5.38,4.12-8.37,1.46-2.98,2.93-5.99,4.39-9.03,1.47-3.05,2.91-6.04,4.32-9,1.41-2.96,2.7-5.71,3.88-8.26.53.09,1.04.16,1.52.23.48.07.99.1,1.52.1s1.04-.03,1.52-.1c.48-.07.98-.14,1.52-.23,1.71,3.81,3.53,7.88,5.47,12.23,1.95,4.35,3.9,8.61,5.88,12.8,1.97,4.18,3.89,8.16,5.75,11.92,1.87,3.76,3.57,6.94,5.12,9.54ZM777.26,695.53c-1.39,2.68-2.69,5.33-3.92,7.94-1.23,2.62-2.43,5.28-3.6,8.01h14.63c-1.17-2.73-2.34-5.39-3.48-8.01-1.14-2.62-2.36-5.26-3.63-7.94Z"/>
    <path class="cls-1" d="M815.58,688.47c-.1-2.11-.18-3.97-.23-5.58,1.49.23,2.69.33,3.6.33s2.11-.1,3.6-.33c5.81,5.42,11.55,10.76,17.23,15.99,5.68,5.24,11.5,10.57,17.47,15.99v-12.36c0-2.19-.01-4.35-.04-6.48-.03-2.13-.05-4.09-.08-5.88-.03-1.79-.08-3.35-.16-4.64-.08-1.3-.18-2.17-.28-2.62,1.49.23,2.69.33,3.59.33s2.11-.1,3.6-.33c-.26,4.08-.47,7.76-.62,11.05-.15,3.3-.29,6.4-.39,9.31-.11,2.91-.17,5.79-.2,8.64-.02,2.84-.04,5.88-.04,9.1v8.07c-1.07-.09-2.16-.13-3.28-.13s-2.21.04-3.12.13c-10.99-10.74-22.65-21.56-34.97-32.45-.04,1.3-.08,2.6-.1,3.9-.02,1.3-.03,2.62-.03,3.97v7.79c0,2.68.01,4.97.04,6.85.03,1.87.07,3.47.12,4.77.05,1.29.1,2.36.16,3.19.05.83.1,1.49.15,1.98-.64-.09-1.28-.13-1.92-.13h-1.84c-1.23,0-2.45.04-3.68.13.11-.36.24-1.64.4-3.83.16-2.19.33-4.87.52-8.03.18-3.16.35-6.58.48-10.28.13-3.69.2-7.24.2-10.65,0-3.09-.05-5.69-.16-7.79Z"/>
    <path class="cls-1" d="M876.4,696.75c1.46-2.91,3.52-5.46,6.19-7.65,2.66-2.19,5.88-3.92,9.65-5.17,3.78-1.25,7.99-1.88,12.62-1.88,4.26,0,8.22.49,11.89,1.48,3.67.99,6.86,2.46,9.58,4.44,2.72,1.96,4.86,4.46,6.42,7.48,1.57,3.02,2.36,6.54,2.36,10.57,0,3.35-.76,6.49-2.27,9.4-1.52,2.91-3.62,5.45-6.31,7.62-2.69,2.17-5.9,3.86-9.62,5.07-3.73,1.21-7.82,1.81-12.29,1.81-4.2,0-8.16-.44-11.86-1.31-3.7-.87-6.92-2.28-9.66-4.23-2.74-1.94-4.91-4.43-6.51-7.45-1.59-3.02-2.39-6.64-2.39-10.85,0-3.31.73-6.42,2.2-9.33ZM920.72,696.75c-.84-2.3-2.03-4.27-3.54-5.87-1.52-1.61-3.35-2.85-5.51-3.72-2.15-.88-4.5-1.32-7.06-1.32-2.71,0-5.14.55-7.29,1.65-2.16,1.1-3.98,2.58-5.46,4.46-1.49,1.88-2.62,4.08-3.39,6.61-.77,2.53-1.16,5.23-1.16,8.08,0,3.58.45,6.6,1.36,9.06.9,2.47,2.13,4.44,3.67,5.94,1.54,1.5,3.32,2.58,5.34,3.25,2.02.67,4.15,1.01,6.38,1.01,2.39,0,4.68-.42,6.86-1.27,2.18-.84,4.08-2.15,5.7-3.89,1.62-1.74,2.93-3.96,3.91-6.64.98-2.68,1.47-5.86,1.47-9.53,0-2.91-.43-5.51-1.28-7.81Z"/>
    <path class="cls-1" d="M960.26,686.24c-2.45,0-4.45.61-5.99,1.81-1.55,1.21-2.32,2.62-2.32,4.22s.6,3.01,1.8,4.06c1.2,1.05,2.71,2,4.52,2.85,1.81.85,3.76,1.67,5.84,2.45,2.08.78,4.03,1.74,5.84,2.88,1.82,1.14,3.33,2.53,4.52,4.16,1.21,1.64,1.8,3.73,1.8,6.27,0,2.23-.51,4.28-1.52,6.14-1.02,1.85-2.46,3.44-4.32,4.76-1.87,1.31-4.09,2.32-6.68,3.01-2.59.69-5.48,1.04-8.69,1.04-2.88,0-5.45-.26-7.72-.78-2.27-.52-3.99-1.16-5.16-1.93.53-1.57.99-3.01,1.36-4.31.37-1.29.7-2.71.96-4.23h1.52c.21.98.62,1.91,1.2,2.79.59.87,1.33,1.65,2.24,2.32.91.67,2,1.21,3.28,1.58,1.28.39,2.72.57,4.32.57,3.21,0,5.57-.67,7.09-2.01,1.52-1.34,2.28-2.95,2.28-4.83,0-1.7-.59-3.09-1.76-4.16-1.18-1.08-2.64-2.02-4.4-2.85-1.76-.82-3.69-1.63-5.77-2.41s-4-1.73-5.76-2.85c-1.76-1.12-3.23-2.49-4.4-4.13-1.18-1.63-1.76-3.72-1.76-6.27,0-2.32.49-4.38,1.49-6.17.99-1.79,2.31-3.28,3.97-4.49,1.66-1.21,3.56-2.13,5.72-2.75,2.16-.63,4.44-.94,6.83-.94,2.88,0,5.4.3,7.55.89,2.16.59,4.01,1.4,5.56,2.43-.48,1.04-.89,2.04-1.24,3-.35.96-.79,2.19-1.32,3.66h-1.2c-1.7-3.85-4.93-5.78-9.67-5.78Z"/>
  </g>
</svg>